<svg width="32" height="20" viewBox="0 0 32 20" fill="none" xmlns="http://www.w3.org/2000/svg">
<path d="M4.94882 19.407C4.69504 19.407 4.47509 19.3309 4.28898 19.1786C4.11979 19.0264 4.03519 18.8402 4.03519 18.6203C4.03519 18.5019 4.06057 18.3919 4.11133 18.2904C4.55122 17.2245 5.31258 15.8371 6.3954 14.1283L7.18214 12.8847C8.19728 11.2944 9.10245 9.8224 9.89764 8.46887C10.7098 7.09843 11.3527 5.88872 11.8264 4.83974C12.3001 3.77384 12.537 2.91942 12.537 2.2765C12.537 1.5659 12.2071 1.2106 11.5472 1.2106C11.1919 1.2106 10.7436 1.31211 10.2022 1.51514C9.66078 1.73509 9.07707 2.01425 8.45107 2.35264C7.84198 2.69102 7.1906 3.10553 6.49691 3.59619C5.58329 4.23911 4.72887 4.94971 3.93368 5.72799C3.13848 6.48934 2.47018 7.27608 1.92877 8.08819C1.40428 8.88339 1.05744 9.65321 0.88825 10.3976C0.820574 10.6853 0.786736 10.9983 0.786736 11.3367C0.786736 12.6394 1.54809 13.2908 3.07081 13.2908C3.18924 13.2908 3.41765 13.2485 3.75603 13.1639C4.11133 13.0624 4.46663 12.9524 4.82193 12.834C5.17723 12.7156 5.40564 12.631 5.50715 12.5802C5.60866 12.5294 5.6848 12.5041 5.73556 12.5041C5.83707 12.5041 5.88783 12.5548 5.88783 12.6563C5.88783 12.8086 5.76094 12.944 5.50715 13.0624C5.3718 13.1301 5.13493 13.2147 4.79655 13.3162C4.45817 13.4177 4.11979 13.5107 3.78141 13.5953C3.45995 13.6799 3.22308 13.7222 3.07081 13.7222C2.05566 13.7053 1.28585 13.5277 0.761357 13.1893C0.253786 12.8509 0 12.2841 0 11.4889C0 11.3536 0.00845952 11.1928 0.0253786 11.0067C0.0592167 10.8206 0.0930548 10.6176 0.126893 10.3976C0.431436 8.95952 1.21817 7.52986 2.4871 6.10866C3.33305 5.1612 4.27206 4.30679 5.30412 3.54543C6.33618 2.78407 7.38516 2.14961 8.45107 1.64204C9.53388 1.11755 10.549 0.762245 11.4965 0.576136C11.801 0.525379 12.0633 0.5 12.2832 0.5C13.2476 0.5 13.7298 0.965274 13.7298 1.89582C13.7298 2.21728 13.679 2.57258 13.5775 2.96172C13.4083 3.67232 13.1546 4.37446 12.8162 5.06814C12.4947 5.7449 12.0887 6.46396 11.598 7.22532C11.1243 7.98668 10.5659 8.85801 9.92302 9.83932L8.47644 12.0473C8.45952 12.0811 8.45952 12.1149 8.47644 12.1488C8.51028 12.1826 8.54412 12.1826 8.57796 12.1488C8.84866 11.8611 9.2378 11.4805 9.74537 11.0067C10.2529 10.5161 10.8959 9.93237 11.6741 9.25561C12.4186 8.59576 13.1715 7.9613 13.9328 7.35221C14.6942 6.74313 15.4133 6.20172 16.09 5.72799C16.7837 5.23733 17.4012 4.85666 17.9426 4.58595C18.4841 4.29833 18.907 4.15451 19.2116 4.15451C19.8714 4.15451 20.2013 4.4929 20.2013 5.16966C20.2013 5.66031 20.0068 6.27785 19.6176 7.02229C19.2454 7.69906 18.8732 8.38428 18.501 9.07796C18.1457 9.75472 17.7988 10.4315 17.4605 11.1082H17.4351C16.2169 13.5107 15.5317 15.1011 15.3794 15.8794C15.3456 16.0655 15.3202 16.2347 15.3033 16.387C15.2864 16.5223 15.2779 16.6408 15.2779 16.7423C15.2779 17.0468 15.3202 17.2922 15.4048 17.4783C15.5063 17.6644 15.667 17.7574 15.887 17.7574C16.1069 17.7574 16.4199 17.6644 16.826 17.4783C17.2321 17.3091 17.6212 17.0807 17.9934 16.793C18.3318 16.5393 18.5602 16.4124 18.6786 16.4124C18.7463 16.4124 18.7801 16.4377 18.7801 16.4885C18.7801 16.5393 18.7548 16.6069 18.704 16.6915C18.5856 16.8946 18.3825 17.0976 18.0949 17.3006C17.5535 17.6898 17.0882 17.9858 16.6991 18.1889C16.3269 18.4088 16.0139 18.5188 15.7601 18.5188C15.2864 18.5188 14.8972 18.3665 14.5927 18.062C14.3051 17.7574 14.1612 17.326 14.1612 16.7677C14.1612 16.7 14.1697 16.5985 14.1866 16.4631C14.2035 16.3278 14.2289 16.1586 14.2628 15.9556C14.3812 15.3972 14.6181 14.6866 14.9734 13.8238C15.3456 12.9609 15.8024 11.9796 16.3438 10.8798C16.9021 9.7801 17.5028 8.61268 18.1457 7.37759C18.4164 6.8531 18.5517 6.47242 18.5517 6.23556C18.5517 5.96485 18.4164 5.8295 18.1457 5.8295C17.9088 5.8295 17.5874 5.92256 17.1813 6.10866C16.7922 6.27786 16.3692 6.4978 15.9124 6.76851C15.4725 7.03921 15.041 7.31838 14.6181 7.606C14.1951 7.89362 13.8398 8.14741 13.5522 8.36736C12.8416 8.92569 12.0802 9.60245 11.2681 10.3976C10.4729 11.1928 9.69461 12.0303 8.93326 12.9101C8.18882 13.7899 7.52898 14.6697 6.95373 15.5495C6.93681 15.5833 6.91989 15.651 6.90297 15.7525C6.88605 15.8371 6.86913 15.9471 6.85221 16.0824C6.8353 16.4377 6.793 16.7507 6.72532 17.0215C6.67456 17.2922 6.56459 17.5798 6.3954 17.8843C6.27697 18.1043 6.17545 18.2904 6.09086 18.4427C6.00626 18.6118 5.93013 18.7387 5.86245 18.8233C5.62558 19.2125 5.32104 19.407 4.94882 19.407Z" fill="#F9E5AD"/>
<path d="M20.813 11.5651C20.5931 11.5651 20.4831 11.5143 20.4831 11.4128C20.4831 11.3282 20.5423 11.2098 20.6607 11.0575C20.7961 10.8883 20.9484 10.7445 21.1175 10.6261C21.4898 10.3892 21.7774 10.1862 21.9804 10.017C22.2004 9.84777 22.4626 9.56015 22.7672 9.15409C22.7841 9.18793 22.7925 9.25561 22.7925 9.35712C22.7925 9.57707 22.6995 9.84777 22.5134 10.1692C22.3442 10.4738 22.1496 10.7529 21.9297 11.0067C21.7097 11.2605 21.5151 11.4212 21.346 11.4889C21.1937 11.5397 21.016 11.5651 20.813 11.5651ZM18.5543 17.7828C18.419 17.7828 18.2921 17.7321 18.1736 17.6305C18.0552 17.529 17.996 17.3937 17.996 17.2245C17.996 16.8692 18.2413 16.2178 18.732 15.2703L19.0111 14.712C19.045 14.6782 19.0873 14.5936 19.138 14.4582C19.2057 14.3229 19.2988 14.1452 19.4172 13.9253C19.5356 13.6884 19.6287 13.4769 19.6964 13.2908C19.764 13.1047 19.8148 12.927 19.8486 12.7579C19.8486 12.7409 19.8825 12.7071 19.9501 12.6563C20.0178 12.6056 20.0855 12.5633 20.1532 12.5294L20.3054 12.5041C20.4408 12.5041 20.5508 12.5294 20.6354 12.5802C20.7369 12.631 20.7707 12.6986 20.7369 12.7832C20.6184 13.037 20.5169 13.257 20.4323 13.4431C20.3477 13.6292 20.2801 13.7899 20.2293 13.9253H20.2039C20.0178 14.3482 19.8571 14.7543 19.7217 15.1434C19.6033 15.5157 19.5525 15.871 19.5695 16.2093L19.5948 16.8946C19.5779 17.0637 19.5187 17.2076 19.4172 17.326C19.3495 17.3768 19.2565 17.436 19.138 17.5036C19.0196 17.5882 18.8673 17.6728 18.6812 17.7574C18.6643 17.7744 18.622 17.7828 18.5543 17.7828Z" fill="#F9E5AD"/>
<path d="M21.5077 18.0366C21.1355 18.0366 20.9833 17.5798 21.0509 16.6662C21.0848 16.4631 21.1524 16.1417 21.254 15.7018C21.3724 15.2619 21.5162 14.7797 21.6854 14.2552C21.8546 13.7138 22.0153 13.2316 22.1676 12.8086C22.2691 12.521 22.4468 12.2503 22.7005 11.9965C22.9712 11.7427 23.1912 11.6158 23.3604 11.6158C23.4619 11.6158 23.5127 11.6835 23.5127 11.8188C23.5127 12.005 23.4111 12.2926 23.2081 12.6817C22.9543 13.1554 22.7513 13.5615 22.599 13.8999C22.4468 14.2213 22.3199 14.5513 22.2183 14.8897C22.1338 15.2111 22.0407 15.6087 21.9392 16.0824V16.3109C21.9392 16.8523 22.0576 17.0215 22.2945 16.8184C22.7344 16.4631 23.1912 16.0486 23.6649 15.5749C24.1387 15.0842 24.587 14.5936 25.01 14.1029C25.433 13.6123 25.7713 13.1808 26.0251 12.8086C26.1943 12.5379 26.3889 12.3349 26.6088 12.1995C26.8457 12.0473 26.9472 12.0219 26.9134 12.1234C26.8965 12.2757 26.7526 12.5548 26.4819 12.9609C26.2282 13.3669 25.9067 13.8238 25.5176 14.3313C25.1453 14.822 24.7562 15.2957 24.3501 15.7525C23.961 16.2093 23.6142 16.5646 23.3096 16.8184C23.1912 16.9369 23.0135 17.0891 22.7767 17.2752C22.5567 17.4783 22.3283 17.6559 22.0915 17.8082C21.8546 17.9605 21.66 18.0366 21.5077 18.0366Z" fill="#F9E5AD"/>
<path d="M25.8076 17.6559C25.5877 17.6559 25.4777 17.4613 25.4777 17.0722C25.4777 16.7507 25.5538 16.4377 25.7061 16.1332C26.0953 15.3888 26.4506 14.6528 26.772 13.9253C26.992 13.4854 27.195 13.0624 27.3811 12.6563C27.5841 12.2503 27.7702 11.8781 27.9394 11.5397C28.0409 11.4382 28.1425 11.3874 28.244 11.3874C28.4639 11.3874 28.5316 11.4889 28.447 11.6919C28.4132 11.8104 28.3624 11.9542 28.2947 12.1234C28.244 12.2757 28.1763 12.4618 28.0917 12.6817C27.821 13.3923 27.6603 13.8914 27.6095 14.1791C28.0832 13.7561 28.5654 13.3669 29.0561 13.0116C29.5637 12.6394 30.0374 12.3349 30.4773 12.098C30.9172 11.8611 31.2894 11.7427 31.5939 11.7427C31.8646 11.7427 32 11.8527 32 12.0726C32 12.2587 31.9154 12.4618 31.7462 12.6817C31.577 12.8847 31.4078 12.9863 31.2386 12.9863C31.154 12.9863 31.0864 12.9609 31.0356 12.9101C30.9849 12.8932 30.8833 12.8847 30.7311 12.8847C30.1897 12.8847 29.6229 13.147 29.0307 13.6715C28.4047 14.196 27.8379 14.8304 27.3303 15.5749C26.8228 16.3024 26.4506 16.9369 26.2137 17.4783C26.0953 17.5967 25.9599 17.6559 25.8076 17.6559Z" fill="#F9E5AD"/>
</svg>
